<?xml version="1.0" encoding="UTF-8"?>
<svg version="1.1" xmlns="http://www.w3.org/2000/svg" width="512" height="512">
<path d="M0 0 C1.35544922 0.60134766 1.35544922 0.60134766 2.73828125 1.21484375 C19.40042217 9.34559144 29.54094779 23.84386851 36.22265625 40.671875 C37 43 37 43 37 45 C38.175625 45.33 39.35125 45.66 40.5625 46 C69.13289095 55.62795306 92.56861573 78.56457281 106.03173828 105.02392578 C118.81671047 131.11610049 121.29300458 158.6689094 122 187.3125 C123.04470262 229.43770357 128.26155289 263.5511741 155.50537109 296.83935547 C164.4815818 307.82903062 170.39755598 316.23857374 170 331 C168.78860083 341.27776559 164.23084465 349.18435954 156.8125 356.3125 C147.79618087 363.19818004 138.28189089 364.73467374 127.21678162 364.62818909 C125.86544531 364.63324589 124.51411575 364.64048341 123.16280133 364.64968723 C119.4826058 364.66847575 115.80308209 364.65645278 112.12290442 364.6389643 C108.1412383 364.62552102 104.15966602 364.64105212 100.17800903 364.65278625 C92.39134412 364.67111509 84.60493101 364.66268269 76.81827407 364.64469803 C70.48759157 364.63064355 64.1569772 364.62678534 57.82628059 364.6301403 C56.47216865 364.63085647 56.47216865 364.63085647 55.09070091 364.6315871 C53.25652335 364.63261348 51.4223458 364.63366884 49.58816827 364.63475286 C33.3885626 364.64331018 17.18907813 364.6266759 0.98950195 364.59692383 C-14.71367481 364.56808402 -30.41667705 364.56100642 -46.11987305 364.57641602 C-63.23970697 364.59319287 -80.35945814 364.59719761 -97.47929424 364.57970566 C-99.30622827 364.57786136 -101.13316231 364.57602663 -102.96009636 364.57420158 C-103.85887273 364.57328949 -104.7576491 364.5723774 -105.68366112 364.57143768 C-112.00401691 364.56584188 -118.32433216 364.56913048 -124.64468575 364.57574654 C-132.35091414 364.58349344 -140.05697102 364.57667824 -147.76316494 364.5515715 C-151.69168856 364.5391084 -155.61994555 364.53289096 -159.54847908 364.54411316 C-163.15031368 364.55420755 -166.75161838 364.54558674 -170.3533889 364.52253198 C-172.26140028 364.5149893 -174.16945861 364.52687452 -176.07744223 364.53963572 C-187.14319785 364.43365961 -196.84846669 361.77239223 -205 354 C-213.45104266 344.83478472 -215.98472309 336.42012843 -216 324 C-215.0998971 313.44424776 -209.14969618 305.96904905 -202.43847656 298.21533203 C-172.24426464 263.2033228 -168.76702337 224.31173178 -167.66162109 179.69506836 C-167.0008114 153.39451704 -163.62688032 128.82600084 -152 105 C-151.51660156 104.00484375 -151.03320312 103.0096875 -150.53515625 101.984375 C-136.86847478 75.48388461 -112.45036274 55.88622472 -85 45 C-84.34 45 -83.68 45 -83 45 C-82.85304687 44.40574219 -82.70609375 43.81148437 -82.5546875 43.19921875 C-78.50412486 28.23076026 -68.76831291 12.92546253 -55.15136719 4.91210938 C-38.21534956 -4.37302367 -18.26517744 -8.81481332 0 0 Z " fill="#000000" transform="translate(279,36)"/>
<path d="M0 0 C1.17791107 -0.00281982 2.35582214 -0.00563965 3.56942749 -0.00854492 C4.87336456 -0.00652069 6.17730164 -0.00449646 7.52075195 -0.00241089 C8.89857021 -0.00376491 10.27638811 -0.00554484 11.65420532 -0.00772095 C15.40616868 -0.0122952 19.15810465 -0.01050576 22.91006851 -0.00734186 C26.82806728 -0.00481822 30.74606364 -0.00715581 34.6640625 -0.00872803 C41.24487735 -0.01054971 47.82568099 -0.00814345 54.40649414 -0.00338745 C62.02558763 0.00205517 69.64465437 0.00029251 77.26374722 -0.00521386 C83.79366759 -0.00974502 90.32357988 -0.01039552 96.85350132 -0.00777519 C100.75865175 -0.00621243 104.66378958 -0.00601861 108.56893921 -0.00931168 C112.23947788 -0.01219044 115.9099819 -0.0102146 119.58051682 -0.00441742 C121.57822369 -0.00245422 123.57593348 -0.00544369 125.57363892 -0.00854492 C126.75154999 -0.0057251 127.92946106 -0.00290527 129.14306641 0 C130.17325394 0.00037703 131.20344147 0.00075405 132.2648468 0.0011425 C134.5715332 0.12698364 134.5715332 0.12698364 135.5715332 1.12698364 C136.17174727 8.4123406 132.90957817 12.54453155 128.5715332 18.12698364 C114.63703131 34.33084469 96.13937533 46.34544541 74.40869141 48.43045044 C71.1857254 48.56278546 67.98451605 48.59526207 64.7590332 48.56448364 C63.61901855 48.55546021 62.47900391 48.54643677 61.30444336 48.53713989 C43.02077459 48.16257049 25.18905981 41.6035153 11.5715332 29.12698364 C10.66790039 28.30327271 9.76426758 27.47956177 8.83325195 26.63088989 C-6.04020359 12.44173406 -6.04020359 12.44173406 -6.66674805 3.86526489 C-6.25241112 -0.89621361 -4.3211528 0.00158145 0 0 Z " fill="#000000" transform="translate(191.428466796875,431.8730163574219)"/>
</svg>
